<svg width="53" height="52" viewBox="0 0 53 52" fill="none" xmlns="http://www.w3.org/2000/svg">
<rect x="0.5" width="52" height="52" rx="26" fill="white"/>
<path d="M26.0996 16.2939L26.5 16.8291L26.9004 16.2939C28.3254 14.3891 30.6099 13.1494 33.16 13.1494C37.4865 13.1494 41 16.6732 41 21.0344C41 22.765 40.7239 24.3632 40.2443 25.8455L40.2432 25.8488C39.094 29.4855 36.7423 32.4078 34.216 34.579C31.6875 36.752 29.0129 38.1477 27.2689 38.7411L27.2689 38.741L27.2636 38.7429C27.0787 38.8082 26.8018 38.8494 26.5 38.8494C26.1982 38.8494 25.9213 38.8082 25.7364 38.7429L25.7364 38.7429L25.7311 38.7411C23.9871 38.1477 21.3125 36.752 18.784 34.579C16.2577 32.4078 13.906 29.4855 12.7568 25.8488L12.7568 25.8488L12.7557 25.8455C12.2761 24.3632 12 22.765 12 21.0344C12 16.6732 15.5135 13.1494 19.84 13.1494C22.3901 13.1494 24.6746 14.3891 26.0996 16.2939Z" fill="#FF3636" stroke="#FF3636"/>
</svg>
