<svg width="122" height="100" viewBox="0 0 122 100" fill="none" xmlns="http://www.w3.org/2000/svg">
<path d="M3.91253 45.5867C4.18932 45.4483 4.46623 45.3168 4.7361 45.1922C9.42767 43.0188 14.1815 40.9838 18.9285 38.9488C19.1845 38.9488 19.6134 38.6511 19.8556 38.5542C20.2223 38.395 20.5891 38.2428 20.9559 38.0836C21.6617 37.779 22.3676 37.4813 23.0664 37.1768C24.4781 36.5746 25.8827 35.9724 27.2943 35.3702C30.1106 34.1658 32.9269 32.9614 35.7433 31.7501C41.3759 29.3414 47.0156 26.9257 52.6483 24.5169C58.2809 22.1082 63.9204 19.6924 69.5531 17.2836C75.1858 14.8749 80.8253 12.4592 86.4579 10.0504C92.0906 7.64166 97.7303 5.22591 103.363 2.81714C104.615 2.27724 105.972 1.47438 107.314 1.23904C108.442 1.03831 109.542 0.650668 110.677 0.436094C112.829 0.0277098 115.202 -0.13844 117.265 0.754468C117.977 1.06595 118.635 1.50201 119.181 2.04883C121.797 4.63757 121.43 8.88754 120.877 12.5284C117.022 37.9036 113.168 63.2857 109.307 88.6608C108.781 92.1425 108.061 95.9633 105.314 98.1644C102.989 100.026 99.6815 100.234 96.8098 99.445C93.9381 98.649 91.4056 96.9808 88.9214 95.3404C78.6179 88.5155 68.3076 81.6907 58.0041 74.8658C55.5545 73.2461 52.8282 71.1281 52.8559 68.1863C52.8697 66.4143 53.9284 64.8362 55.0078 63.4311C63.962 51.7471 76.8811 43.7178 86.4926 32.5738C87.8488 31.0025 88.9145 28.1647 87.0531 27.2579C85.946 26.718 84.6726 27.4518 83.6623 28.1509C70.9577 36.9761 58.2602 45.8082 45.5555 54.6334C41.4106 57.5129 37.0651 60.4755 32.069 61.1815C27.5989 61.8183 23.1011 60.5724 18.7762 59.2988C15.1503 58.2328 11.5312 57.1392 7.926 56.0109C6.00924 55.4157 4.03018 54.7719 2.54936 53.4221C1.06854 52.0724 0.217529 49.8021 1.11017 48.0024C1.67067 46.8742 2.75709 46.1612 3.89884 45.5798L3.91253 45.5867Z" fill="#00B0F2"/>
</svg>
